<svg xmlns="http://www.w3.org/2000/svg" width="1440" viewBox="0 0 1440 810" height="810" version="1.0"><path fill="#3056D3" d="M 180.316406 580.640625 C 279.523438 580.640625 359.949219 500.121094 359.949219 400.792969 C 359.949219 301.464844 279.523438 220.941406 180.316406 220.941406 C 81.105469 220.941406 0.679688 301.464844 0.679688 400.792969 C 0.679688 500.121094 81.105469 580.640625 180.316406 580.640625 Z M 180.316406 580.640625"/><path fill="#FFF" d="M 113.628906 433.902344 C 94.574219 402.109375 97.75 373.492188 123.15625 348.058594 C 161.261719 309.90625 194.601562 333.753906 218.421875 319.445312 C 234.300781 309.90625 240.648438 294.011719 237.472656 271.757812 C 256.527344 303.546875 253.351562 332.164062 227.945312 357.597656 C 189.839844 395.75 156.496094 371.90625 132.683594 386.210938 C 116.800781 395.75 110.453125 411.644531 113.628906 433.902344 Z M 123.15625 538.820312 C 104.101562 507.027344 107.277344 478.410156 132.683594 452.976562 C 170.789062 414.824219 204.128906 438.671875 227.945312 424.363281 C 243.824219 414.824219 250.175781 398.929688 247 376.675781 C 266.050781 408.464844 262.875 437.082031 237.472656 462.515625 C 199.367188 500.667969 166.023438 476.824219 142.207031 491.128906 C 126.328125 500.667969 119.976562 516.5625 123.15625 538.820312 Z M 123.15625 538.820312" fill-rule="evenodd"/><g fill="#FFF"><g><g><path d="M 5.390625 -88.46875 C 5.390625 -99.082031 7.265625 -109.535156 11.015625 -119.828125 C 14.773438 -130.117188 20.289062 -139.347656 27.5625 -147.515625 C 34.832031 -155.679688 43.65625 -162.296875 54.03125 -167.359375 C 64.40625 -172.429688 76.207031 -174.96875 89.4375 -174.96875 C 104.957031 -174.96875 118.515625 -171.492188 130.109375 -164.546875 C 141.710938 -157.609375 150.289062 -148.421875 155.84375 -136.984375 L 119.34375 -111 C 117.863281 -115.25 115.941406 -118.757812 113.578125 -121.53125 C 111.210938 -124.3125 108.640625 -126.519531 105.859375 -128.15625 C 103.078125 -129.789062 100.132812 -130.9375 97.03125 -131.59375 C 93.925781 -132.25 91.070312 -132.578125 88.46875 -132.578125 C 82.414062 -132.578125 77.222656 -131.226562 72.890625 -128.53125 C 68.566406 -125.832031 64.972656 -122.316406 62.109375 -117.984375 C 59.253906 -113.660156 57.171875 -108.757812 55.859375 -103.28125 C 54.554688 -97.8125 53.90625 -92.378906 53.90625 -86.984375 C 53.90625 -80.941406 54.679688 -75.144531 56.234375 -69.59375 C 57.785156 -64.039062 60.070312 -59.140625 63.09375 -54.890625 C 66.125 -50.640625 69.800781 -47.25 74.125 -44.71875 C 78.457031 -42.1875 83.398438 -40.921875 88.953125 -40.921875 C 91.734375 -40.921875 94.59375 -41.285156 97.53125 -42.015625 C 100.46875 -42.753906 103.285156 -43.984375 105.984375 -45.703125 C 108.679688 -47.421875 111.128906 -49.625 113.328125 -52.3125 C 115.535156 -55.007812 117.296875 -58.316406 118.609375 -62.234375 L 157.5625 -38.96875 C 155.113281 -32.59375 151.394531 -26.875 146.40625 -21.8125 C 141.425781 -16.75 135.75 -12.5 129.375 -9.0625 C 123.007812 -5.632812 116.234375 -3.019531 109.046875 -1.21875 C 101.859375 0.570312 94.832031 1.46875 87.96875 1.46875 C 75.882812 1.46875 64.773438 -1.101562 54.640625 -6.25 C 44.515625 -11.394531 35.816406 -18.210938 28.546875 -26.703125 C 21.273438 -35.203125 15.597656 -44.84375 11.515625 -55.625 C 7.429688 -66.40625 5.390625 -77.351562 5.390625 -88.46875 Z M 5.390625 -88.46875" transform="translate(401.655 492.798)"/></g></g></g><g fill="#FFF"><g><g><path d="M 14.953125 0 L 14.953125 -173.984375 L 94.828125 -173.984375 C 103.328125 -173.984375 111.171875 -172.226562 118.359375 -168.71875 C 125.546875 -165.207031 131.710938 -160.628906 136.859375 -154.984375 C 142.003906 -149.347656 146.046875 -142.894531 148.984375 -135.625 C 151.929688 -128.363281 153.40625 -121.054688 153.40625 -113.703125 C 153.40625 -103.578125 151.195312 -94.140625 146.78125 -85.390625 C 142.375 -76.648438 136.25 -69.503906 128.40625 -63.953125 L 167.609375 0 L 113.703125 0 L 80.625 -53.421875 L 62.734375 -53.421875 L 62.734375 0 Z M 62.734375 -95.078125 L 92.875 -95.078125 C 95.8125 -95.078125 98.546875 -96.707031 101.078125 -99.96875 C 103.609375 -103.238281 104.875 -107.816406 104.875 -113.703125 C 104.875 -119.742188 103.40625 -124.359375 100.46875 -127.546875 C 97.53125 -130.734375 94.585938 -132.328125 91.640625 -132.328125 L 62.734375 -132.328125 Z M 62.734375 -95.078125" transform="translate(562.16 492.798)"/></g></g></g><g fill="#FFF"><g><g><path d="M 88.703125 1.46875 C 76.285156 1.46875 64.972656 -1.0625 54.765625 -6.125 C 44.554688 -11.1875 35.816406 -17.84375 28.546875 -26.09375 C 21.273438 -34.34375 15.640625 -43.773438 11.640625 -54.390625 C 7.640625 -65.015625 5.640625 -75.960938 5.640625 -87.234375 C 5.640625 -98.671875 7.722656 -109.695312 11.890625 -120.3125 C 16.054688 -130.9375 21.894531 -140.289062 29.40625 -148.375 C 36.914062 -156.457031 45.773438 -162.910156 55.984375 -167.734375 C 66.203125 -172.554688 77.4375 -174.96875 89.6875 -174.96875 C 102.101562 -174.96875 113.414062 -172.429688 123.625 -167.359375 C 133.832031 -162.296875 142.570312 -155.597656 149.84375 -147.265625 C 157.113281 -138.941406 162.707031 -129.46875 166.625 -118.84375 C 170.550781 -108.226562 172.515625 -97.363281 172.515625 -86.25 C 172.515625 -74.820312 170.429688 -63.835938 166.265625 -53.296875 C 162.097656 -42.753906 156.335938 -33.441406 148.984375 -25.359375 C 141.640625 -17.273438 132.816406 -10.78125 122.515625 -5.875 C 112.222656 -0.976562 100.953125 1.46875 88.703125 1.46875 Z M 54.15625 -86.75 C 54.15625 -80.863281 54.847656 -75.179688 56.234375 -69.703125 C 57.628906 -64.234375 59.796875 -59.375 62.734375 -55.125 C 65.671875 -50.882812 69.34375 -47.457031 73.75 -44.84375 C 78.164062 -42.226562 83.316406 -40.921875 89.203125 -40.921875 C 95.242188 -40.921875 100.46875 -42.269531 104.875 -44.96875 C 109.289062 -47.664062 112.882812 -51.175781 115.65625 -55.5 C 118.4375 -59.832031 120.519531 -64.773438 121.90625 -70.328125 C 123.300781 -75.878906 124 -81.515625 124 -87.234375 C 124 -93.117188 123.257812 -98.796875 121.78125 -104.265625 C 120.3125 -109.734375 118.144531 -114.550781 115.28125 -118.71875 C 112.425781 -122.882812 108.796875 -126.234375 104.390625 -128.765625 C 99.984375 -131.304688 94.835938 -132.578125 88.953125 -132.578125 C 82.910156 -132.578125 77.722656 -131.269531 73.390625 -128.65625 C 69.054688 -126.039062 65.460938 -122.566406 62.609375 -118.234375 C 59.753906 -113.898438 57.628906 -109 56.234375 -103.53125 C 54.847656 -98.0625 54.15625 -92.46875 54.15625 -86.75 Z M 54.15625 -86.75" transform="translate(730.263 492.798)"/></g></g></g><g fill="#FFF"><g><g><path d="M 62.734375 -85.515625 L 62.734375 0 L 14.953125 0 L 14.953125 -173.984375 L 52.1875 -173.984375 L 122.03125 -85.515625 L 122.03125 -173.984375 L 169.8125 -173.984375 L 169.8125 0 L 131.828125 0 Z M 62.734375 -85.515625" transform="translate(908.412 492.798)"/></g></g></g><g fill="#FFF"><g><g><path d="M 88.703125 1.46875 C 76.285156 1.46875 64.972656 -1.0625 54.765625 -6.125 C 44.554688 -11.1875 35.816406 -17.84375 28.546875 -26.09375 C 21.273438 -34.34375 15.640625 -43.773438 11.640625 -54.390625 C 7.640625 -65.015625 5.640625 -75.960938 5.640625 -87.234375 C 5.640625 -98.671875 7.722656 -109.695312 11.890625 -120.3125 C 16.054688 -130.9375 21.894531 -140.289062 29.40625 -148.375 C 36.914062 -156.457031 45.773438 -162.910156 55.984375 -167.734375 C 66.203125 -172.554688 77.4375 -174.96875 89.6875 -174.96875 C 102.101562 -174.96875 113.414062 -172.429688 123.625 -167.359375 C 133.832031 -162.296875 142.570312 -155.597656 149.84375 -147.265625 C 157.113281 -138.941406 162.707031 -129.46875 166.625 -118.84375 C 170.550781 -108.226562 172.515625 -97.363281 172.515625 -86.25 C 172.515625 -74.820312 170.429688 -63.835938 166.265625 -53.296875 C 162.097656 -42.753906 156.335938 -33.441406 148.984375 -25.359375 C 141.640625 -17.273438 132.816406 -10.78125 122.515625 -5.875 C 112.222656 -0.976562 100.953125 1.46875 88.703125 1.46875 Z M 54.15625 -86.75 C 54.15625 -80.863281 54.847656 -75.179688 56.234375 -69.703125 C 57.628906 -64.234375 59.796875 -59.375 62.734375 -55.125 C 65.671875 -50.882812 69.34375 -47.457031 73.75 -44.84375 C 78.164062 -42.226562 83.316406 -40.921875 89.203125 -40.921875 C 95.242188 -40.921875 100.46875 -42.269531 104.875 -44.96875 C 109.289062 -47.664062 112.882812 -51.175781 115.65625 -55.5 C 118.4375 -59.832031 120.519531 -64.773438 121.90625 -70.328125 C 123.300781 -75.878906 124 -81.515625 124 -87.234375 C 124 -93.117188 123.257812 -98.796875 121.78125 -104.265625 C 120.3125 -109.734375 118.144531 -114.550781 115.28125 -118.71875 C 112.425781 -122.882812 108.796875 -126.234375 104.390625 -128.765625 C 99.984375 -131.304688 94.835938 -132.578125 88.953125 -132.578125 C 82.910156 -132.578125 77.722656 -131.269531 73.390625 -128.65625 C 69.054688 -126.039062 65.460938 -122.566406 62.609375 -118.234375 C 59.753906 -113.898438 57.628906 -109 56.234375 -103.53125 C 54.847656 -98.0625 54.15625 -92.46875 54.15625 -86.75 Z M 54.15625 -86.75" transform="translate(1093.178 492.798)"/></g></g></g><g fill="#FFF"><g><g><path d="M 120.3125 -117.125 C 115.414062 -120.070312 110.351562 -122.6875 105.125 -124.96875 C 100.71875 -126.9375 95.773438 -128.773438 90.296875 -130.484375 C 84.828125 -132.203125 79.476562 -133.0625 74.25 -133.0625 C 70 -133.0625 66.609375 -132.40625 64.078125 -131.09375 C 61.546875 -129.789062 60.28125 -127.585938 60.28125 -124.484375 C 60.28125 -122.191406 61.015625 -120.3125 62.484375 -118.84375 C 63.953125 -117.375 66.078125 -116.023438 68.859375 -114.796875 C 71.640625 -113.578125 75.03125 -112.394531 79.03125 -111.25 C 83.03125 -110.101562 87.5625 -108.710938 92.625 -107.078125 C 100.632812 -104.628906 107.863281 -101.9375 114.3125 -99 C 120.769531 -96.0625 126.285156 -92.585938 130.859375 -88.578125 C 135.429688 -84.578125 138.941406 -79.71875 141.390625 -74 C 143.835938 -68.28125 145.0625 -61.335938 145.0625 -53.171875 C 145.0625 -42.710938 143.140625 -33.929688 139.296875 -26.828125 C 135.460938 -19.722656 130.398438 -14.046875 124.109375 -9.796875 C 117.828125 -5.554688 110.722656 -2.492188 102.796875 -0.609375 C 94.867188 1.265625 86.90625 2.203125 78.90625 2.203125 C 72.53125 2.203125 65.992188 1.710938 59.296875 0.734375 C 52.597656 -0.242188 45.941406 -1.628906 39.328125 -3.421875 C 32.710938 -5.222656 26.34375 -7.347656 20.21875 -9.796875 C 14.09375 -12.253906 8.414062 -15.035156 3.1875 -18.140625 L 23.765625 -60.03125 C 29.484375 -56.4375 35.445312 -53.253906 41.65625 -50.484375 C 46.882812 -48.023438 52.804688 -45.816406 59.421875 -43.859375 C 66.035156 -41.898438 72.773438 -40.921875 79.640625 -40.921875 C 84.867188 -40.921875 88.503906 -41.613281 90.546875 -43 C 92.585938 -44.394531 93.609375 -46.234375 93.609375 -48.515625 C 93.609375 -50.960938 92.585938 -53.046875 90.546875 -54.765625 C 88.503906 -56.484375 85.6875 -57.992188 82.09375 -59.296875 C 78.5 -60.609375 74.375 -61.914062 69.71875 -63.21875 C 65.0625 -64.53125 60.117188 -66.082031 54.890625 -67.875 C 47.210938 -70.488281 40.59375 -73.304688 35.03125 -76.328125 C 29.476562 -79.347656 24.90625 -82.773438 21.3125 -86.609375 C 17.71875 -90.453125 15.0625 -94.820312 13.34375 -99.71875 C 11.632812 -104.625 10.78125 -110.265625 10.78125 -116.640625 C 10.78125 -126.273438 12.535156 -134.769531 16.046875 -142.125 C 19.554688 -149.476562 24.332031 -155.601562 30.375 -160.5 C 36.425781 -165.40625 43.332031 -169.125 51.09375 -171.65625 C 58.851562 -174.1875 67.0625 -175.453125 75.71875 -175.453125 C 82.09375 -175.453125 88.300781 -174.835938 94.34375 -173.609375 C 100.382812 -172.390625 106.222656 -170.835938 111.859375 -168.953125 C 117.492188 -167.078125 122.757812 -165.035156 127.65625 -162.828125 C 132.5625 -160.628906 136.976562 -158.546875 140.90625 -156.578125 Z M 120.3125 -117.125" transform="translate(1271.327 492.798)"/></g></g></g></svg>